<?xml version="1.0" ?><!DOCTYPE svg  PUBLIC '-//W3C//DTD SVG 1.1//EN'  'http://www.w3.org/Graphics/SVG/1.1/DTD/svg11.dtd'>
<svg height="60px" style="shape-rendering:geometricPrecision; text-rendering:geometricPrecision; image-rendering:optimizeQuality; 
fill-rule:evenodd; clip-rule:evenodd" viewBox="0 0 2048 2048" width="60px" xml:space="preserve" 
xmlns="http://www.w3.org/2000/svg" xmlns:xlink="http://www.w3.org/1999/xlink"><defs><style type="text/css">

  </style></defs><g id="Layer_x0020_1">
  <g id="_510584712">
  <path style="fill:#333333;fill-rule:nonzero" d="M1474.12 775.982c14.3114,25.0973 29.8925,53.8394 42.0343,88.3642 12.2457,34.8189 20.8358,75.0733
   20.8358,122.522 0,32.6811 -4.8437,69.4607 -14.4933,110.35 -9.4441,40.0158 -23.5795,84.1642 -42.3697,132.463l-73.2886 244.897
    -30.437 0.499607 -266.02 -791.036 -6.67678 -19.8508 20.9268 -1.14921c42.8303,-2.35158 81.5977,-6.84567 
    83.2666,-7.03938l-0.0011811 -0.00708662c6.9189,-0.812599 11.0032,-4.61811 12.5221,-9.1441 0.688583,-2.05276 
    0.927166,-4.35945 0.729922,-6.71457 -0.190158,-2.28543 -0.804331,-4.47048 -1.82008,-6.36024 -2.13543,-3.97205 
    -6.51024,-6.86103 -13.0417,-6.64134l0.0011811 0.0177165c-0.346063,0.0271654 -120.045,9.50079 -197.44,9.50079 -72.7087,0 
    -194.677,-9.47363 -195.028,-9.50079l0.0011811 -0.0153543c-6.71693,-0.231496 -11.2063,3.19252 -13.3087,7.70906 -0.968505,2.0811 
    -1.52953,4.31811 -1.66417,6.5315 -0.140551,2.30079 0.112205,4.53544 0.773623,6.51733 1.41496,4.24252 5.20276,7.67717 
    11.6067,8.03741l0.999213 0.0625985c0.10748,0.011811 37.539,4.66536 76.3347,7.04646l10.4669 0.64252 3.59528 9.85749 114.579 
    314.117 0.125197 10.4374 -161.055 483.055 -30.2504 0.0625985 -268.081 -797.171 -6.6756 -19.8508 20.9256 
    -1.14921c42.8351,-2.35158 81.6662,-6.84567 83.3375,-7.03938l-0.0011811 -0.00708662c6.93426,-0.811418 11.0173,-4.60394 
    12.5315,-9.11576 0.687402,-2.04803 0.923623,-4.35355 0.726379,-6.70867 -0.191339,-2.28425 -0.805512,-4.47048 -1.82126,-6.36142 
    -2.1437,-3.9874 -6.52678,-6.89646 -13.0536,-6.6756l0.0011811 0.0188977c-0.344882,0.0271654 -119.954,9.50079 -197.503,9.50079 
    -9.94961,0 -25.1929,-0.376772 -41.4945,-0.778347l-6.13347 -0.15 -28.7374 -0.702756 15.7996 -23.9847c68.5182,-104.01 
    162.071,-190.037 272.059,-249.397 106.044,-57.2315 227.341,-89.7308 356.186,-89.7308l0 0.0625985c96.0355,-0.00236221 
    187.831,18.0236 272.195,50.8406 87.6898,34.1103 167.397,84.215 235.544,146.674l-11.6256 27.6874c-2.36575,-0.132284 
    -3.14173,-0.197244 -3.86693,-0.258662 -1.61811,-0.135827 -3.24803,-0.275197 -4.69607,-0.275197 -30.4394,0 -56.5642,12.8221 
    -75.4087,32.7189 -20.2973,21.4311 -32.25,51.0544 -32.25,81.8552 0,51.6508 28.676,97.8839 61.3217,150.519 2.81103,4.53307 
    5.65394,9.11457 8.50631,13.7469l0.311811 0.500788zm11.9091 98.8642c-11.2453,-31.9772 -26.0386,-59.2323 
    -39.6579,-83.1154l0.00236221 -0.0011811c-2.74843,-4.46103 -5.48741,-8.87599 -8.19686,-13.2449 -35.2418,-56.8205 
    -66.1973,-106.729 -66.1973,-167.269 0,-38.9374 15.2433,-76.5225 41.1272,-103.854 18.1453,-19.1599 41.4756,-33.2929 
    68.4343,-39.3933 -58.526,-48.2268 -124.827,-87.4253 -196.756,-115.404 -80.8371,-31.4457 -168.756,-48.7158 
    -260.695,-48.7146l0 0.0625985c-123.457,0 -239.597,31.0949 -341.061,85.8544 -96.7891,52.2367 -180.254,125.965 
    -244.019,214.742 5.65276,0.0897638 11.3941,0.145276 17.4012,0.145276 76.6312,0 194.664,-9.34961 195.004,-9.3756l0.437008 
    0c20.9327,-1.13622 35.5985,9.19253 43.239,23.4071 3.15,5.86182 5.02559,12.3343 5.57245,18.8622 0.543308,6.45591 
    -0.225591,13.1256 -2.35158,19.4575 -5.18032,15.4323 -18.0437,28.2685 -39.1559,30.7418l-0.0625985 0c-0.0968505,0.0106299 
    -28.4315,3.33189 -64.2792,5.85827l246.281 732.345 144.226 -432.579 -109.119 -299.147c-36.3721,-2.57481 -67.6241,-6.46654 
    -67.7221,-6.47717l0 -0.0011811c-21.0567,-1.54961 -33.9107,-14.1484 -39.1075,-29.7248 -1.99252,-5.97284 -2.77914,-12.3095 
    -2.39882,-18.5173 0.38504,-6.29528 1.91221,-12.515 4.53898,-18.1559 7.22835,-15.5315 22.252,-27.2646 44.3079,-26.0693l0.37441 
    0c0.347244,0.0259843 120.705,9.3756 192.654,9.3756 76.4788,0 194.6,-9.34961 194.941,-9.3756l0.437008 0c20.9421,-1.13504 
    35.5925,9.17835 43.2272,23.374 3.15118,5.85827 5.02559,12.3319 5.57126,18.861 0.540945,6.45827 -0.230315,13.1315 
    -2.35512,19.4634 -5.18268,15.4406 -18.0496,28.2933 -39.1465,30.7701l-0.0625985 0c-0.0968505,0.0106299 -28.3784,3.33189 
    -64.2083,5.85827l243.373 723.694 58.9607 -197.017 0.437008 -1.18701c18.3402,-47.0457 32.1355,-90.0827 41.3492,-129.125 
    9.06615,-38.4177 13.6169,-72.7808 13.6169,-103.101 0,-43.5756 -7.81772,-80.3375 -18.9603,-112.022z" id="_510584160"/>
  
  <path style="fill:#333333;fill-rule:nonzero" d="M1604.14 1004.22c20.6339,-51.6154 34.3677,-97.9005 42.9154,-140.335 8.4815,-42.1063 11.8807,-80.7579 
  11.8807,-117.307 0,-13.4599 -0.413386,-26.152 -1.21654,-38.1366 -0.82441,-12.3024 -2.04213,-24.0839 -3.62717,-35.3953l29.8122 
  -9.8752c29.8382,54.4524 53.1189,112.925 68.7957,174.373 15.215,59.6422 23.2996,122.113 23.2996,186.46 0,136.198 -36.274,263.959 
  -99.6816,374.201 -65.6835,114.196 -160.475,209.476 -274.206,275.745l-23.0622 -18.9992 224.84 -649.98 0.250394 -0.750001zm74.165 
  -134.085c-8.95276,44.4414 -23.2134,92.6103 -44.5406,145.96l-0.00826772 -0.00354331 -209.832 606.599c92.1768,-61.643 
  169.329,-143.969 224.771,-240.36 60.6225,-105.4 95.3044,-227.732 95.3044,-358.327 0,-61.676 -7.73741,-121.505 -22.298,-178.584 
  -8.17442,-32.041 -18.4914,-63.2103 -30.789,-93.3485 -0.333071,36.5374 -4.02048,75.4371 -12.6071,118.064z" id="_510584832"/>
  
  <path style="fill:#333333;fill-rule:nonzero" d="M1024.09 1776.09c-36.3095,0 -72.1229,-2.63858 -107.265,-7.69961 -35.8949,-5.16733 -71.0174,-12.8929 
  -105.187,-22.937l-16.0571 -4.72087 5.43189 -15.7784 220.932 -641.672 30.1252 -0.250394 226.073 619.411 0.00944883 
  -0.00354331c0.498426,1.27087 1.0689,2.46732 1.67835,3.6189 0.694489,1.31102 1.46575,2.61614 2.25945,3.92126l10.2378 16.8189 
  -18.5504 6.5563c-39.5422,13.9748 -80.6174,24.7488 -122.881,31.9772 -41.3103,7.06536 -83.6859,10.7587 -126.807,10.7587zm-102.765 
  -39.3248c33.4288,4.81418 67.7327,7.32402 102.765,7.32402 41.4697,0 82.0465,-3.52205 121.433,-10.2579 34.5874,-5.91615 
  68.3221,-14.302 100.999,-24.9543l-208.994 -572.619 -200.769 583.108c27.5421,7.40788 55.7611,13.252 84.5658,17.3988z" id="_510584352"/>
  
  <path style="fill:#333333;fill-rule:nonzero" d="M272 1024c0,-53.5099 5.69528,-105.773 16.4433,-156.261 11.0764,-52.0288 27.5717,-102.162 
  48.7725,-149.818l29.5618 1.06181 351.084 961.92 -21.9378 19.813c-127.443,-61.8461 -234.821,-158.738 -309.63,-278.172 
  -72.417,-115.617 -114.294,-252.246 -114.294,-398.543zm47.693 -149.635c-10.2567,48.1819 -15.6921,98.2217 -15.6921,149.635 
  0,140.277 40.0453,271.109 109.293,381.668 64.4327,102.868 154.174,188.287 260.488,247.533l-322.909 -884.724c-12.9473,34.1114 
  -23.4295,69.476 -31.1799,105.888z" id="_510584472"/>
  
  <path style="fill:#333333;fill-rule:nonzero" d="M304.396 1024c0,198.747 80.5501,378.672 210.786,508.907 130.234,130.236 310.16,210.786 508.907,210.786 
  198.716,0 378.65,-80.5583 508.896,-210.806 130.233,-130.233 210.795,-310.149 210.795,-508.887 0,-198.706 -80.5701,-378.632 
  -210.815,-508.877 -130.245,-130.245 -310.17,-210.815 -508.876,-210.815 -198.737,0 -378.653,80.5631 -508.887,210.796 
  -130.247,130.246 -210.806,310.18 -210.806,508.896zm188.16 531.532c-136.029,-136.028 -220.161,-323.952 -220.161,-531.532 
  0,-207.549 84.1406,-395.482 220.181,-531.521 136.025,-136.025 323.942,-220.172 531.512,-220.172 207.54,0 395.464,84.1536 
  531.501,220.191 136.037,136.037 220.191,323.962 220.191,531.502 0,207.569 -84.1453,395.487 -220.171,531.512 -136.039,136.041 
  -323.972,220.181 -531.521,220.181 -207.58,0 -395.504,-84.1323 -531.532,-220.161z" id="_510584664"/></g>
  
  <path style="fill:#EBEBEA" d="M1446.37 791.73l0 0zm-630.18 -196.452c0.347244,0.0259843 120.705,9.3756 192.654,9.3756 76.4788,0 
  194.6,-9.34961 194.941,-9.3756l0.437008 0c20.9421,-1.13504 35.5925,9.17835 43.2272,23.374 3.15118,5.85827 5.02559,12.3319 
  5.57126,18.861 0.540945,6.45827 -0.230315,13.1315 -2.35512,19.4634 -5.18268,15.4406 -18.0496,28.2933 -39.1465,30.7701l-0.0625985 
  0c-0.0968505,0.0106299 -28.3784,3.33189 -64.2083,5.85827l243.373 723.694 58.9607 -197.017 0.437008 -1.18701c18.3402,-47.0457 
  32.1355,-90.0827 41.3492,-129.125 9.06615,-38.4177 13.6169,-72.7808 13.6169,-103.101 0,-43.5756 -7.81772,-80.3375 
  -18.9603,-112.022 -11.2453,-31.9772 -26.0386,-59.2323 -39.6555,-83.1166l-8.19686 -13.2449c-35.2418,-56.8205 -66.1973,-106.729 
  -66.1973,-167.269 0,-38.9374 15.2433,-76.5225 41.1272,-103.854 18.0508,-19.0606 41.2323,-33.1453 68.0138,-39.2977 
  -124.303,-102.312 -283.505,-163.756 -457.031,-163.756 -198.737,0 -378.653,80.5631 -508.887,210.796 -27.6603,27.6603 
  -53.08,57.5622 -75.9638,89.4083 5.57835,0.0874016 11.2453,0.141732 17.1709,0.141732 76.6312,0 194.664,-9.34961 
  195.004,-9.3756l0.437008 0c20.9327,-1.13622 35.5985,9.19253 43.239,23.4071 3.15,5.86182 5.02559,12.3343 5.57245,18.8622 
  0.543308,6.45591 -0.225591,13.1256 -2.35158,19.4575 -5.18032,15.4323 -18.0437,28.2685 -39.1559,30.7418l-0.0625985 
  0c-0.0968505,0.0106299 -28.4315,3.33189 -64.2792,5.85827l246.281 732.345 144.226 -432.579 -109.119 -299.147c-36.3721,-2.57481 
  -67.6241,-6.46654 -67.7221,-6.47835 -21.0567,-1.54961 -33.9107,-14.1484 -39.1075,-29.7248 -1.99252,-5.97284 -2.77914,-12.3095 
  -2.39882,-18.5173 0.38504,-6.29528 1.91221,-12.515 4.53898,-18.1559 7.22835,-15.5315 22.252,-27.2646 44.3079,-26.0693l0.37441 
  0z"/>
  
  <path style="fill:#EBEBEA" d="M1633.76 1016.09l-209.74 606.334c39.2185,-26.263 75.7134,-56.2796 108.969,-89.5347 130.233,-130.233 
  210.795,-310.149 210.795,-508.887 0,-95.9446 -18.7843,-187.511 -52.8745,-271.219 -0.37441,36.3307 -4.0689,75.0012 -12.6,117.351 
  -8.95276,44.4414 -23.2134,92.6103 -44.5489,145.956z"/>
  
  <path style="fill:#EBEBEA" d="M1246.45 1708.68l-208.922 -572.422 -200.677 582.84c59.7024,16.0406 122.471,24.5953 187.239,24.5953 
  77.5973,0 152.33,-12.2835 222.359,-35.0138z"/>
  
  <path style="fill:#EBEBEA" d="M673.616 1652.75l-322.64 -883.988c-30.1016,79.3323 -46.5804,165.365 -46.5804,255.24 0,198.747 
  80.5501,378.672 210.786,508.907 46.8579,46.8579 100.149,87.2847 158.434,119.842z"/>
  
  <path style="fill:#9E9E9E" d="M1207.9 656.004l0 0zm-552.369 0l0 0zm-286.427 69.3485l346.372 949.006c29.1886,13.8744 59.4603,25.8425 
  90.652,35.7414l215.818 -626.819 30.1252 -0.250394 224.506 615.12c36.3236,-13.6122 71.2548,-30.0756 104.521,-49.1174l222.794 
  -644.066 0.250394 -0.750001c20.6339,-51.6154 34.3677,-97.9005 42.9154,-140.335 8.4815,-42.1063 11.8807,-80.7579 11.8807,-117.307 
  0,-13.4599 -0.413386,-26.152 -1.21654,-38.1366 -0.734646,-10.9571 -1.7811,-21.502 -3.12047,-31.6689 -32.8642,-59.5382 
  -73.9146,-113.926 -121.635,-161.646 -6.24804,-6.24804 -12.6095,-12.3815 -19.0831,-18.3969 -0.775985,-0.0507874 
  -1.53189,-0.0838583 -2.24292,-0.0838583 -30.4394,0 -56.5642,12.8221 -75.4087,32.7189 -20.2973,21.4311 -32.25,51.0544 
  -32.25,81.8552 0,51.6508 28.676,97.8839 61.3217,150.519 2.81103,4.53307 5.65394,9.11457 8.50631,13.7469l0.311811 
  0.500788c14.3114,25.0973 29.8925,53.8394 42.0343,88.3642 12.2457,34.8189 20.8358,75.0733 20.8358,122.522 0,32.6811 
  -4.8437,69.4607 -14.4933,110.35 -9.4441,40.0158 -23.5795,84.1642 -42.3697,132.463l-73.2886 244.897 -30.437 0.499607 
  -266.02 -791.036 -6.67678 -19.8508 20.9268 -1.14921c42.8303,-2.35158 81.5977,-6.84567 83.2654,-7.04646 6.9189,-0.812599 
  11.0032,-4.61811 12.5221,-9.1441 0.688583,-2.05276 0.927166,-4.35945 0.729922,-6.71457 -0.190158,-2.28543 -0.804331,-4.47048 
  -1.82008,-6.36024 -2.13543,-3.97205 -6.51024,-6.86103 -13.0417,-6.64134l0.0011811 0.0177165c-0.346063,0.0271654 -120.045,9.50079 
  -197.44,9.50079 -72.7087,0 -194.677,-9.47363 -195.028,-9.50079l0.0011811 -0.0153543c-6.71693,-0.231496 -11.2063,3.19252 
  -13.3087,7.70906 -0.968505,2.0811 -1.52953,4.31811 -1.66417,6.5315 -0.140551,2.30079 0.112205,4.53544 0.773623,6.51733 
  1.41496,4.24252 5.20276,7.67717 11.6067,8.03741l0.999213 0.0625985c0.10748,0.011811 37.539,4.66536 76.3347,7.04646l10.4669 
  0.64252 3.59528 9.85749 114.579 314.117 0.125197 10.4374 -161.055 483.055 -30.2504 0.0625985 -268.081 -797.171 -6.6756 
  -19.8508 20.9256 -1.14921c42.8351,-2.35158 81.6662,-6.84567 83.3363,-7.04646 6.93426,-0.811418 11.0173,-4.60394 12.5315,-9.11576 
  0.687402,-2.04803 0.923623,-4.35355 0.726379,-6.70867 -0.191339,-2.28425 -0.805512,-4.47048 -1.82126,-6.36142 -2.1437,-3.9874 
  -6.52678,-6.89646 -13.0536,-6.6756l0.0011811 0.0188977c-0.344882,0.0271654 -119.954,9.50079 -197.503,9.50079 -9.34371,0 
  -23.3551,-0.33189 -38.5264,-0.705119 -18.2776,28.4906 -34.6004,58.3548 -48.7807,89.4024z"/>
  
  </g><rect style="fill:none" height="2048" width="2048"/></svg>